<?xml version="1.0" encoding="UTF-8" standalone="no"?><!-- Generator: Gravit.io --><svg xmlns="http://www.w3.org/2000/svg" xmlns:xlink="http://www.w3.org/1999/xlink" style="isolation:isolate" viewBox="0 0 500 500" width="500pt" height="500pt"><defs><clipPath id="_clipPath_YuvpXbthHdBiIA7aVEM1hJcZIVS3VLlK"><rect width="500" height="500"/></clipPath></defs><g clip-path="url(#_clipPath_YuvpXbthHdBiIA7aVEM1hJcZIVS3VLlK)"><path d=" M 284.129 46.095 C 266.764 52.29 258.399 72.806 266.567 89.169 C 268.339 92.719 288.179 113.386 331.176 156.473 L 393.228 218.653 L 207.54 218.956 C 21.854 219.259 21.854 219.259 17.173 221.766 C -5.712 234.018 -5.728 265.823 17.147 278.066 C 21.854 280.586 21.854 280.586 207.54 280.889 L 393.228 281.192 L 331.176 343.373 C 288.179 386.46 268.339 407.127 266.567 410.677 C 253.456 436.946 282.124 465.484 308.448 452.369 C 315.647 448.78 492.002 272.555 496.485 264.466 C 501.172 256.014 501.172 243.832 496.485 235.379 C 491.936 227.172 315.639 51.062 308.32 47.413 C 301.178 43.852 291.843 43.343 284.129 46.095 Z " fill-rule="evenodd" fill="rgb(0,0,0)"/></g></svg>