<?xml version="1.0" encoding="UTF-8" standalone="no"?><!-- Generator: Gravit.io --><svg xmlns="http://www.w3.org/2000/svg" xmlns:xlink="http://www.w3.org/1999/xlink" style="isolation:isolate" viewBox="0 0 500 500" width="500pt" height="500pt"><defs><clipPath id="_clipPath_TCKH4hMgahkZ5nnI4qfcMnjSRZyrFnjX"><rect width="500" height="500"/></clipPath></defs><g clip-path="url(#_clipPath_TCKH4hMgahkZ5nnI4qfcMnjSRZyrFnjX)"><path d=" M 215.871 46.095 C 233.236 52.29 241.601 72.806 233.433 89.169 C 231.661 92.719 211.821 113.386 168.824 156.473 L 106.772 218.653 L 292.46 218.956 C 478.146 219.259 478.146 219.259 482.827 221.766 C 505.712 234.018 505.728 265.823 482.853 278.066 C 478.146 280.586 478.146 280.586 292.46 280.889 L 106.772 281.192 L 168.824 343.373 C 211.821 386.46 231.661 407.127 233.433 410.677 C 246.544 436.946 217.876 465.484 191.552 452.369 C 184.353 448.78 7.998 272.555 3.515 264.466 C -1.172 256.014 -1.172 243.832 3.515 235.379 C 8.064 227.172 184.361 51.062 191.68 47.413 C 198.822 43.852 208.157 43.343 215.871 46.095 Z " fill-rule="evenodd" fill="rgb(0,0,0)"/></g></svg>