<?xml version="1.0" encoding="UTF-8" standalone="no"?><!-- Generator: Gravit.io --><svg xmlns="http://www.w3.org/2000/svg" xmlns:xlink="http://www.w3.org/1999/xlink" style="isolation:isolate" viewBox="0 0 500 500" width="500pt" height="500pt"><defs><clipPath id="_clipPath_fFGuaw9VyrV1ZiuYAMXdHXHfoDvgklXf"><rect width="500" height="500"/></clipPath></defs><g clip-path="url(#_clipPath_fFGuaw9VyrV1ZiuYAMXdHXHfoDvgklXf)"><path d=" M 312.371 250 L 486.95 75.421 C 504.203 58.198 504.228 30.249 487.005 12.995 C 469.781 -4.258 441.833 -4.283 424.579 12.94 L 250 187.519 L 75.421 12.94 C 58.167 -4.313 30.194 -4.313 12.94 12.94 C -4.313 30.194 -4.313 58.167 12.94 75.421 L 187.519 250 L 12.94 424.579 C -4.313 441.833 -4.313 469.806 12.94 487.06 C 30.194 504.313 58.167 504.313 75.421 487.06 L 250 312.481 L 424.579 487.06 C 441.833 504.313 469.806 504.313 487.06 487.06 C 504.313 469.806 504.313 441.833 487.06 424.579 L 312.371 250 Z " fill="rgb(0,0,0)"/></g></svg>