<?xml version="1.0" encoding="UTF-8" standalone="no"?><!-- Generator: Gravit.io --><svg xmlns="http://www.w3.org/2000/svg" xmlns:xlink="http://www.w3.org/1999/xlink" style="isolation:isolate" viewBox="0 0 500 500" width="500pt" height="500pt"><defs><clipPath id="_clipPath_5PdGrohI2bCOwqxxxIpnZm2SZa2AppZp"><rect width="500" height="500"/></clipPath></defs><g clip-path="url(#_clipPath_5PdGrohI2bCOwqxxxIpnZm2SZa2AppZp)"><g><path d=" M 255.791 88.834 C 252.57 85.752 247.493 85.752 244.271 88.834 L 52.5 272.031 C 50.854 273.606 49.925 275.785 49.927 278.062 L 49.896 450 C 49.896 458.84 53.408 467.318 59.659 473.57 C 65.91 479.821 74.389 483.333 83.229 483.333 L 183.333 483.333 C 192.538 483.333 200 475.871 200 466.666 L 200 325 C 200 320.397 203.731 316.667 208.333 316.667 L 291.666 316.667 C 296.269 316.667 300 320.397 300 325 L 300 466.666 C 300 475.871 307.462 483.333 316.666 483.333 L 416.729 483.333 C 435.138 483.333 450.062 468.409 450.062 450 L 450.062 278.062 C 450.064 275.785 449.135 273.606 447.489 272.031 L 255.791 88.834 Z " fill="rgb(0,0,0)"/><path d=" M 494.697 237.656 L 416.781 163.115 L 416.781 50 C 416.781 40.796 409.319 33.334 400.114 33.334 L 350.114 33.334 C 340.909 33.334 333.447 40.796 333.447 50 L 333.447 83.334 L 273.114 25.646 C 267.468 19.938 259.073 16.667 250 16.667 C 240.958 16.667 232.583 19.938 226.937 25.657 L 5.375 237.635 C -1.104 243.885 -1.916 254.167 3.98 260.937 C 6.972 264.391 11.251 266.465 15.815 266.674 C 20.38 266.883 24.831 265.208 28.125 262.042 L 244.271 55.5 C 247.493 52.418 252.57 52.418 255.791 55.5 L 471.958 262.042 C 478.587 268.399 489.112 268.194 495.489 261.583 C 501.885 254.958 501.353 244.021 494.697 237.656 Z " fill="rgb(0,0,0)"/></g></g></svg>