<?xml version="1.0" encoding="UTF-8" standalone="no"?><!-- Generator: Gravit.io --><svg xmlns="http://www.w3.org/2000/svg" xmlns:xlink="http://www.w3.org/1999/xlink" style="isolation:isolate" viewBox="0 0 500 500" width="500pt" height="500pt"><defs><clipPath id="_clipPath_loib6eZ8ybHo9uhC6RhaGQUyzvnfS1D2"><rect width="500" height="500"/></clipPath></defs><g clip-path="url(#_clipPath_loib6eZ8ybHo9uhC6RhaGQUyzvnfS1D2)"><path d=" M 167 107 L 293.42 107 L 293.42 107 C 319.82 107 345.16 117.5 363.83 136.17 C 382.5 154.84 393 180.18 393 206.58 L 393 332.085 L 400.415 332.085 C 422.263 332.085 440 314.348 440 292.5 L 440 98.67 C 440 76.822 422.263 59.085 400.415 59.085 L 206.585 59.085 C 184.737 59.085 167 76.822 167 98.67 L 167 107 Z  M 107 107 L 99.58 107 C 73.18 107 47.84 117.5 29.17 136.17 C 10.5 154.84 0 180.18 0 206.58 L 0 400.42 C 0 426.82 10.5 452.16 29.17 470.83 C 47.84 489.5 73.18 500 99.58 500 L 293.42 500 C 319.82 500 345.16 489.5 363.83 470.83 C 382.5 452.16 393 426.82 393 400.42 L 393 392.085 L 400.42 392.085 C 426.82 392.085 452.16 381.585 470.83 362.915 C 489.5 344.245 500 318.905 500 292.505 L 500 98.665 C 500 72.265 489.5 46.925 470.83 28.255 C 452.16 9.585 426.82 -0.915 400.42 -0.915 L 206.58 -0.915 C 180.18 -0.915 154.84 9.585 136.17 28.255 C 117.5 46.925 107 72.265 107 98.665 L 107 107 Z  M 293.415 167 L 99.585 167 C 77.737 167 60 184.737 60 206.585 L 60 400.415 C 60 422.263 77.737 440 99.585 440 L 293.415 440 C 315.263 440 333 422.263 333 400.415 L 333 206.585 C 333 184.737 315.263 167 293.415 167 L 293.415 167 Z " fill-rule="evenodd" fill="rgb(0,0,0)"/></g></svg>