<?xml version="1.0" encoding="UTF-8" standalone="no"?><!-- Generator: Gravit.io --><svg xmlns="http://www.w3.org/2000/svg" xmlns:xlink="http://www.w3.org/1999/xlink" style="isolation:isolate" viewBox="0 0 500 500" width="500pt" height="500pt"><defs><clipPath id="_clipPath_B55gYOxEw5CWxrCvAmuwM2aTYJf2eAJl"><rect width="500" height="500"/></clipPath></defs><g clip-path="url(#_clipPath_B55gYOxEw5CWxrCvAmuwM2aTYJf2eAJl)"><path d=" M 288.516 88.817 C 283.267 88.544 278.011 88.348 272.755 88.229 C 265.174 88.044 257.581 87.951 249.988 87.963 C 195.37 87.963 142.94 109.687 104.329 148.299 C 85.532 167.083 70.544 189.317 60.174 213.785 C 49.468 239.167 43.958 266.435 43.982 293.981 C 43.958 321.528 49.468 348.796 60.174 374.178 C 70.544 398.646 85.532 420.88 104.329 439.664 C 142.94 478.275 195.382 500 249.988 500 C 277.535 500.023 304.815 494.514 330.197 483.808 C 354.664 473.437 376.898 458.449 395.683 439.653 C 434.294 401.03 456.019 348.599 456.019 293.981 C 456.019 288.461 453.819 283.16 449.919 279.248 C 446.007 275.347 440.706 273.148 435.185 273.148 C 429.664 273.148 424.363 275.347 420.451 279.248 C 416.551 283.16 414.352 288.461 414.352 293.981 C 414.352 337.558 397.025 379.387 366.215 410.197 C 351.227 425.197 333.495 437.153 313.97 445.428 C 293.727 453.958 271.979 458.356 250.012 458.333 C 206.435 458.333 164.595 441.007 133.785 410.197 C 118.785 395.208 106.829 377.477 98.553 357.951 C 90.012 337.708 85.625 315.949 85.648 293.981 C 85.625 272.014 90.012 250.255 98.553 230.012 C 106.829 210.486 118.785 192.755 133.785 177.766 C 164.595 146.956 206.435 129.63 250.012 129.63 C 257.269 129.618 264.514 129.711 271.771 129.884 C 277.442 130.012 283.102 130.243 288.773 130.567 C 291.027 130.691 293.277 130.844 295.526 131.025 L 235.266 191.285 C 231.366 195.197 229.167 200.498 229.167 206.018 C 229.167 211.539 231.366 216.84 235.266 220.752 C 239.178 224.653 244.479 226.852 250 226.852 C 255.521 226.852 260.822 224.653 264.734 220.752 L 357.329 128.157 C 365.459 120.027 365.459 106.825 357.329 98.695 L 264.734 6.1 C 260.822 2.199 255.521 0 250 0 C 244.479 0 239.178 2.199 235.266 6.1 C 231.366 10.012 229.167 15.312 229.167 20.833 C 229.167 26.354 231.366 31.655 235.266 35.567 L 288.516 88.817 Z " fill="rgb(0,0,0)"/></g></svg>