<?xml version="1.0" encoding="UTF-8" standalone="no"?><!-- Generator: Gravit.io --><svg xmlns="http://www.w3.org/2000/svg" xmlns:xlink="http://www.w3.org/1999/xlink" style="isolation:isolate" viewBox="0 0 500 500" width="500pt" height="500pt"><defs><clipPath id="_clipPath_D7fm9kaIlHSO3fTgELzKGR68VJOArbS2"><rect width="500" height="500"/></clipPath></defs><g clip-path="url(#_clipPath_D7fm9kaIlHSO3fTgELzKGR68VJOArbS2)"><path d=" M 303.846 0 L 303.846 0 L 326.923 0 C 344.26 0 360.904 6.894 373.154 19.154 C 385.413 31.404 392.308 48.048 392.308 65.385 L 392.308 434.615 C 392.308 451.952 385.413 468.596 373.154 480.846 C 360.904 493.106 344.26 500 326.923 500 L 173.077 500 C 155.74 500 139.096 493.106 126.846 480.846 C 114.587 468.596 107.692 451.952 107.692 434.615 L 107.692 65.385 C 107.692 48.048 114.587 31.404 126.846 19.154 C 139.096 6.894 155.74 0 173.077 0 L 173.077 0 L 196.154 0 L 303.846 0 Z  M 326.923 38.462 L 326.923 38.462 L 313.404 38.462 L 313.404 38.462 C 311.019 45.212 306.596 51.058 300.75 55.183 C 294.913 59.317 287.923 61.538 280.769 61.538 L 219.231 61.538 C 212.077 61.538 205.087 59.317 199.25 55.183 C 193.404 51.058 188.981 45.212 186.596 38.462 L 173.077 38.462 L 173.077 38.462 C 165.942 38.462 159.087 41.298 154.038 46.346 C 148.99 51.394 146.154 58.25 146.154 65.385 L 146.154 434.615 C 146.154 441.75 148.99 448.606 154.038 453.654 C 159.087 458.702 165.942 461.538 173.077 461.538 L 326.923 461.538 C 334.058 461.538 340.913 458.702 345.962 453.654 C 351.01 448.606 353.846 441.75 353.846 434.615 L 353.846 65.385 C 353.846 58.25 351.01 51.394 345.962 46.346 C 340.913 41.298 334.058 38.462 326.923 38.462 Z " fill-rule="evenodd" fill="rgb(255,255,255)"/><path d=" M 177.393 171.827 C 172.691 173.785 168.064 178.563 166.436 183.139 C 165.437 185.951 165.328 187.552 165.623 195.058 C 166.022 205.212 167.757 213.12 171.603 222.33 C 176.03 232.931 180.762 240.137 188.697 248.365 C 213.383 273.962 249.093 281.797 281.505 268.728 C 312.968 256.041 334.511 224.775 334.52 191.784 C 334.522 185.978 334.352 184.991 332.772 181.651 C 328.062 171.695 316.074 167.55 306.101 172.429 C 299.331 175.741 296.052 181.341 295.287 190.895 C 293.784 209.679 285.052 223.042 269.282 230.692 C 256.706 236.792 243.265 236.792 230.689 230.692 C 215.052 223.106 206.196 209.705 204.724 191.4 C 204.095 183.559 202.695 179.996 198.662 175.96 C 195.07 172.366 191.326 170.8 185.663 170.522 C 181.823 170.334 180.465 170.548 177.393 171.827 Z  M 225.482 299.546 C 225.482 311.542 226.305 315.292 230.064 320.414 C 234.612 326.608 241.082 329.618 249.851 329.618 C 259.121 329.618 265.963 326.316 270.331 319.735 C 273.832 314.459 274.489 311.263 274.489 299.489 C 274.489 293.823 274.283 289.191 274.03 289.196 C 273.777 289.201 270.56 289.753 266.881 290.421 C 261.949 291.318 257.51 291.637 249.985 291.637 C 242.46 291.637 238.021 291.318 233.089 290.421 C 229.411 289.753 226.193 289.201 225.941 289.196 C 225.689 289.191 225.482 293.848 225.482 299.546 Z " fill-rule="evenodd" fill="rgb(255,255,255)"/></g></svg>